<svg xmlns="http://www.w3.org/2000/svg" viewBox="0 0 64 64">
  <rect width="64" height="64" rx="18" fill="#10131f"/>
  <path
    d="M18 26c-4.418 0-8 3.582-8 8v1c0 7.18 5.82 13 13 13h3.188c2.122 0 4.157-.843 5.657-2.343L32 45.5l.155.157A8 8 0 0 0 37.812 48H41c7.18 0 13-5.82 13-13v-1c0-4.418-3.582-8-8-8h-6.584a8 8 0 0 0-5.657 2.343L32 29.5l-1.759-1.157A8 8 0 0 0 24.584 26H18Z"
    fill="#7c3cff"
  />
  <path
    d="M18 26c-4.418 0-8 3.582-8 8v1c0 7.18 5.82 13 13 13h3.188c2.122 0 4.157-.843 5.657-2.343L32 45.5V29.5l-1.759-1.157A8 8 0 0 0 24.584 26H18Z"
    fill="#18d7ff"
  />
  <circle cx="24" cy="36" r="3.2" fill="#111827"/>
  <circle cx="40" cy="36" r="3.2" fill="#111827"/>
  <path d="M20 36h8M24 32v8" stroke="#10131f" stroke-linecap="round" stroke-width="2.8"/>
  <circle cx="38" cy="34" r="1.9" fill="#18d7ff"/>
  <circle cx="42" cy="38" r="1.9" fill="#18d7ff"/>
  <path
    d="M31.5 29.8c.31-.31.69-.552 1.105-.704A6.5 6.5 0 0 1 34.834 28.7H46c3.48 0 6.3 2.82 6.3 6.3v.699A11.3 11.3 0 0 1 41 47H37.812a6.3 6.3 0 0 1-4.455-1.845L32 43.8V30.5l-.5-.7Z"
    fill="#ff37c7"
    opacity=".88"
  />
</svg>
